PathFileType	4	(X/Y/Z)	pose2sim_tools_200-690.trc
DataRate	CameraRate	NumFrames	NumMarkers	Units	OrigDataRate	OrigDataStartFrame	OrigNumFrames
29	29	5	22	m	29	261	690
Frame#	Time	Hip			RHip			RKnee			RAnkle			RBigToe			RSmallToe			RHeel			LHip			LKnee			LAnkle			LBigToe			LSmallToe			LHeel			Neck			Head			Nose			RShoulder			RElbow			RWrist			LShoulder			LElbow			LWrist			
		X1	Y1	Z1	X2	Y2	Z2	X3	Y3	Z3	X4	Y4	Z4	X5	Y5	Z5	X6	Y6	Z6	X7	Y7	Z7	X8	Y8	Z8	X9	Y9	Z9	X10	Y10	Z10	X11	Y11	Z11	X12	Y12	Z12	X13	Y13	Z13	X14	Y14	Z14	X15	Y15	Z15	X16	Y16	Z16	X17	Y17	Z17	X18	Y18	Z18	X19	Y19	Z19	X20	Y20	Z20	X21	Y21	Z21	X22	Y22	Z22	
261	9.0	-4.437361818055188	0.5254266384885159	-0.0008535548461419409	-4.443616825273181	0.5109168512957291	-0.07569814245566867	-4.618292468726768	0.22091731246492563	-0.0690507650056494	-4.5024534045169	-0.048709298271010726	-0.0833040186523588	-4.583165945349932	-0.189078930826624	-0.0548620671478166	-4.567800466801613	-0.18610287153874894	-0.11511957641929328	-4.455671011739783	-0.1107339900310259	-0.08119212896552341	-4.410786076307758	0.5115090940988472	0.06971231342617451	-4.428525623706291	0.1803034966657395	0.04600092032799654	-4.355563799066973	-0.14055819496234606	0.0163703681697011	-4.511393980204708	-0.19422515020922654	0.014006688592915886	-4.431068260855553	-0.20798976097468386	0.06777830141894514	-4.294102800923723	-0.19462407693980194	0.001952771291395907	-4.470219484055187	1.0235079257339488	0.0006595668454065979	-4.5107902740992865	1.2656356407355636	-0.005039124515081732	-4.574160530987762	1.1283623974343573	0.0076640325710967275	-4.461451325586057	0.9176116710577265	-0.1411304603358107	-4.387976816180294	0.6912952825980299	-0.20169168340039012	-4.4775070001345485	0.5100264159551171	-0.23992548180017315	-4.459660473008287	0.9182319304328347	0.142386806639156	-4.530683027142643	0.6968783600670252	0.2091845449774283	-4.6070264194286255	0.5059907254760412	0.2526917048445533
262	9.03448275862069	-4.478300652963818	0.5221118627507768	-0.0015829693373976728	-4.47323687908649	0.5052571162994309	-0.07426099797442805	-4.691786450216383	0.2119847957342396	-0.06404224170751195	-4.612760707213546	-0.07964222227215732	-0.08215236062193959	-4.686145801052591	-0.1650056413737676	-0.06006937764665571	-4.6849135122103345	-0.16992686959268088	-0.1118199959687557	-4.5821994596370645	-0.1526347455602614	-0.07948782651737753	-4.453043192721557	0.505630312267485	0.0688607687794265	-4.455763405514545	0.1896327089796658	0.044011983834728985	-4.347397389193549	-0.13241584645881335	0.013402036572686446	-4.503724975421086	-0.20730077648136444	0.022776999115994977	-4.4002084110258926	-0.20851656507983066	0.06503062292929944	-4.287083796896094	-0.1895590910475184	-0.004825164429761674	-4.520534290731185	1.0214098780453156	0.002098798513866526	-4.554643769501217	1.256679979737736	-0.010193416937904232	-4.716558341815359	1.1272145842258097	0.012186125556679592	-4.488430214598623	0.9131881908976087	-0.13912979433167266	-4.419835980861888	0.6881473443811695	-0.20087200559394114	-4.497290789353845	0.5002981666558695	-0.24022021255852732	-4.496262851267521	0.911931974936091	0.13893805660585312	-4.600692433326603	0.6977436517617803	0.21204569680484908	-4.697236411882468	0.5091786077306942	0.25292195560459624
263	9.068965517241379	-4.511857988461619	0.5146860761388168	-0.0038091737826070563	-4.518178050616885	0.500917774660973	-0.0812452749599284	-4.74106336996426	0.19811930709037312	-0.06083968638115511	-4.7511484180245125	-0.12131156362301306	-0.06811077512391081	-5.005719619750641	-0.19225938808766016	-0.01117697561685257	-5.014932505911719	-0.20754542800966622	-0.05309314359823121	-4.729279355247884	-0.18628055304614669	-0.06721905265158509	-4.487411415822269	0.5030152504390689	0.0652313597033499	-4.467550296237194	0.18019189178397127	0.0411570844592245	-4.372035425995162	-0.14373393928879763	0.013142341147488553	-4.503746087330913	-0.19978664531087326	0.02232658377826772	-4.441547115262679	-0.21161591438738803	0.06796905330319303	-4.322222954841832	-0.19561209460257326	-0.0029787388202646243	-4.564875738930808	1.0157921445890268	-0.002479816382337853	-4.601353602184423	1.2540148551126635	-0.01120343486979626	-4.730880540307726	1.125510486573138	-0.003310503921244791	-4.54754015627941	0.910417481650141	-0.1403466026719055	-4.473680718608478	0.6765392923914628	-0.20359573055580216	-4.516411014461373	0.4963725467309788	-0.24255643603330204	-4.540816359674116	0.9104957274824945	0.13961874431869614	-4.675130690596311	0.6958458752688652	0.21041029777323295	-4.762317670822309	0.5075978473069792	0.2597684481685049
264	9.10344827586207	-4.56768715490298	0.5119088995276533	-0.004327622187533411	-4.583115861977579	0.49160651848827297	-0.07926181204519038	-4.775788123014829	0.18701128750958082	-0.06074755169172204	-4.877536917318942	-0.1385091085733666	-0.05034642112585451	-5.157808013057837	-0.18314945915399014	-0.0005863896690652974	-5.182521124716937	-0.19759060039129375	-0.04180175965903518	-4.836995951374503	-0.19769518917678736	-0.046157653729263524	-4.541137528170405	0.4956691657758367	0.06467327872968975	-4.4957291846724665	0.1832610966141282	0.037993881261687026	-4.3710986475612446	-0.13184246931248522	0.015741474847862723	-4.5122684295143705	-0.195420335376111	0.011940425424285259	-4.398232262890469	-0.20316570746308996	0.0740294606804204	-4.30343420314831	-0.18293236977386015	-7.513889398903101e-05	-4.619037288434937	1.0134150150376156	-0.0026691820915359286	-4.6417105921726725	1.2410457338965473	-0.016284716539541073	-4.809884093934293	1.116748683570294	0.0036980375092969453	-4.5919897945614965	0.9047758068085879	-0.14151529918025257	-4.527989243172844	0.6757054597970205	-0.20259451176853444	-4.571547030089733	0.4862143852714312	-0.24906080247726875	-4.599061897301879	0.909350217922086	0.13776058949646422	-4.716355765451626	0.6943443770633718	0.21095972233550564	-4.842749318238574	0.5154801737438891	0.25394196425117077
265	9.137931034482758	-4.62650470978795	0.509110268500494	-0.006147956705188412	-4.629336337214327	0.4876397928985636	-0.08209275128531718	-4.829574752615133	0.17771890822249883	-0.05349545210566889	-4.950426787844993	-0.15052271300820083	-0.03470960263568356	-5.190844203689794	-0.18787397952120308	-0.0016144550680011172	-5.223814365781262	-0.20364690330166693	-0.03999679423898668	-4.890348265615985	-0.20738156269252392	-0.026983397628298454	-4.603139698556065	0.4913982866042629	0.06580652475027213	-4.538601319022441	0.18166245140065118	0.03894356351657822	-4.363052876314116	-0.12023386782649101	0.01554390437746946	-4.5534916555643195	-0.19744773411265254	0.013322869104417772	-4.425803445448118	-0.198475554280628	0.07752643318580335	-4.30431979748327	-0.17299207013341844	0.001997775408894407	-4.668937465504227	1.0107164204148646	-0.006631597826441047	-4.700170294338969	1.2457576992914106	-0.01806218235978529	-4.858438860145544	1.1193369469280756	-0.00016141881744774665	-4.635525556017736	0.901705528992133	-0.143526296519981	-4.569191153079897	0.6726525371143193	-0.20373479557665186	-4.619149012533016	0.4819802770359136	-0.24752448818318118	-4.63702423512035	0.9078364460119116	0.1351747428188729	-4.774276544027312	0.690757991180447	0.2123388382370995	-4.9311066606544784	0.5120894940169182	0.2546332803154286
